<svg width="48" height="48" viewBox="0 0 48 48" fill="currentColor" xmlns="http://www.w3.org/2000/svg">
  <path d="M24.0487 0C16.7918 0 10.6785 4.73222 8.69583 11.2886C6.74432 11.6188 5.19189 13.3098 5.19189 15.4285V18.857C5.19189 21.2164 7.11812 23.1426 9.47753 23.1426H9.92943C11.0885 23.1587 11.0885 21.4119 9.92943 21.4284H9.47753C8.03804 21.4284 6.90614 20.2965 6.90614 18.857V15.4285C6.90614 13.989 8.07017 12.8601 9.34019 12.8671C9.73087 12.8698 10.0737 12.6069 10.174 12.2292C11.7845 6.1543 17.3632 1.71448 24.0487 1.71448C30.7341 1.71448 36.3129 6.1543 37.9233 12.2292C38.0232 12.6069 38.3661 12.8694 38.7571 12.8671C40.0271 12.8606 41.1912 13.989 41.1912 15.4285V18.857C41.1912 20.2965 40.0593 21.4284 38.6198 21.4284C38.1495 21.4284 37.7672 21.8072 37.7627 22.2771C37.7588 22.6559 37.6655 22.9953 37.2335 23.3301C36.8018 23.6649 35.9309 23.9997 34.3341 23.9997H29.1478C28.9461 23.0286 28.0741 22.2855 27.0485 22.2855H24.4772C23.3047 22.2855 22.3343 23.2559 22.3343 24.4283V25.2854C22.3343 26.4579 23.3047 27.4283 24.4772 27.4283H27.0485C28.0744 27.4283 28.9461 26.6852 29.1478 25.714H34.3341C36.1654 25.714 37.432 25.3459 38.2834 24.6862C38.8925 24.214 39.1669 23.6022 39.3161 23.0003C41.3331 22.6544 42.9054 20.9696 42.9054 18.857V15.4285C42.9054 13.3098 41.353 11.6188 39.4015 11.2886C37.4186 4.73232 31.3055 0 24.0486 0H24.0487ZM24.0487 3.42851C16.9407 3.42851 11.1918 9.17743 11.1918 16.2854V18.8568C11.1918 22.3201 12.564 25.4544 14.7859 27.7644L13.2794 29.2709V29.2713C13.0617 29.4144 12.9209 29.6494 12.8972 29.9088C12.8735 30.1686 12.9691 30.425 13.157 30.6056L20.8711 38.3197C21.206 38.6542 21.7485 38.6542 22.0834 38.3197L24.0486 36.3545L26.0138 38.3197C26.3486 38.6542 26.8912 38.6542 27.226 38.3197L34.8197 30.7261C35.0646 30.5635 35.2092 30.2868 35.2031 29.9926V29.991V29.9891V29.986C35.2027 29.696 35.0562 29.4258 34.8128 29.2678L32.8342 27.2976C32.6428 26.9972 32.2854 26.8468 31.9368 26.9192C31.7425 26.9544 31.5665 27.0558 31.4379 27.2058C29.4737 28.9437 26.8963 29.9998 24.0486 29.9998C17.8608 29.9998 12.9059 25.0449 12.9059 18.8572V18.6949C13.344 18.5556 13.9073 18.2974 14.513 17.8125C15.6269 16.9217 16.7989 15.1149 17.6802 12.2378C19.5624 13.0976 21.9455 13.7144 24.0486 13.7144C26.1512 13.7144 28.5343 13.0976 30.4166 12.2378C31.2978 15.1149 32.4702 16.9213 33.5837 17.8125C34.1895 18.297 34.7527 18.5553 35.1908 18.6949V18.8572C35.1908 19.681 35.102 20.4827 34.9348 21.2529L34.9352 21.2525C34.887 21.4748 34.9291 21.7071 35.0519 21.8984C35.1751 22.0894 35.3691 22.2241 35.5914 22.2723C35.8134 22.3205 36.0456 22.2784 36.237 22.1552C36.4283 22.032 36.5626 21.838 36.6108 21.616C36.804 20.7272 36.9054 19.8038 36.9054 18.8572V16.2858C36.9054 9.17781 31.1565 3.42889 24.0485 3.42889L24.0487 3.42851ZM24.0487 5.14276C30.2365 5.14276 35.1913 10.0976 35.1913 16.2854V16.8261C35.0264 16.7346 34.8512 16.6294 34.6556 16.4729C33.7583 15.7551 32.5622 14.2333 31.7376 10.9349C31.6729 10.6751 31.4904 10.4604 31.2443 10.3544C30.9983 10.2488 30.7171 10.2641 30.4836 10.3961C28.9392 11.2678 26.0951 11.9998 24.0483 11.9998C22.0015 11.9998 19.1577 11.2674 17.6134 10.3961H17.6138C17.4883 10.3253 17.3471 10.2874 17.2036 10.2855C16.8056 10.2798 16.4559 10.5488 16.3599 10.9349C15.5353 14.2329 14.3391 15.7551 13.4418 16.4729C13.2463 16.6294 13.071 16.7346 12.9061 16.8261V16.2854C12.9061 10.0976 17.861 5.14276 24.0488 5.14276L24.0487 5.14276ZM24.4772 23.9995H27.0486C27.3008 23.9995 27.4772 24.176 27.4772 24.4281V25.2852C27.4772 25.5378 27.3008 25.7138 27.0486 25.7138H24.4772C24.2251 25.7138 24.0487 25.5374 24.0487 25.2852V24.4281C24.0487 24.1756 24.2251 23.9995 24.4772 23.9995ZM16.0549 28.9197C16.6311 29.3781 17.2422 29.7932 17.8931 30.1483C17.9337 30.2229 17.985 30.2914 18.0454 30.3507L22.8365 35.1418L21.477 36.501L14.9747 29.9991L16.0549 28.9197ZM32.0405 28.9262L33.1203 30.001L26.62 36.5014L25.2604 35.1422L30.0519 30.3507C30.1162 30.288 30.1705 30.2157 30.2126 30.1365C30.8581 29.784 31.4688 29.3796 32.0405 28.9262L32.0405 28.9262ZM37.4175 30.5234H37.4179C37.0356 30.541 36.7115 30.8096 36.6231 31.1819C36.5351 31.5542 36.7043 31.9395 37.0379 32.127C41.5819 34.8048 44.6196 39.739 44.6196 45.4277V46.2848H3.47754V45.4277C3.47754 39.7401 6.51461 34.8071 11.0578 32.129C11.393 31.9384 11.5594 31.5474 11.4649 31.1735C11.3704 30.8001 11.0379 30.5353 10.6525 30.5268C10.4888 30.5234 10.3273 30.567 10.1872 30.6523C5.13745 33.6294 1.76331 39.1295 1.76331 45.4282V47.1429C1.76331 47.6162 2.1471 48 2.62043 48H45.4768C45.9501 48 46.3339 47.6162 46.3339 47.1429V45.4286C46.3339 39.1291 42.9594 33.6287 37.9084 30.6518C37.7615 30.5607 37.5904 30.5163 37.4178 30.5243L37.4175 30.5234ZM21.5905 31.4727C22.3864 31.6261 23.2068 31.7138 24.0483 31.7138C24.8859 31.7138 25.704 31.6334 26.4976 31.4811L24.0483 33.9304L21.5905 31.4727Z"></path>
</svg>