<svg width="48" height="48" viewBox="0 0 48 48" fill="currentColor" xmlns="http://www.w3.org/2000/svg">
  <path d="M38.5182 29.6128C38.7581 29.4253 38.9756 29.2154 39.163 28.9603C39.9429 27.888 39.8756 26.4933 39.8079 25.2561C39.7703 24.4462 39.7254 23.6815 39.9129 23.1187C40.0855 22.6012 40.5501 22.024 41.0452 21.4164C41.8399 20.4415 42.7399 19.3392 42.7399 17.9521C42.7399 16.5722 41.8399 15.4627 41.0452 14.4878C40.5501 13.8805 40.0855 13.3106 39.9129 12.7854C39.733 12.2231 39.7703 11.458 39.8079 10.6481C39.868 9.41842 39.9429 8.01614 39.163 6.94385C38.3756 5.86396 37.0185 5.49667 35.8185 5.17426C35.0462 4.96437 34.3112 4.76932 33.8462 4.43203C33.3888 4.10199 32.9839 3.47234 32.5488 2.80465C31.8739 1.75481 31.1017 0.570017 29.8119 0.150223C28.567 -0.254723 27.2772 0.240325 26.1377 0.674966C25.3654 0.975309 24.638 1.25288 24.0307 1.25288C23.4235 1.25288 22.6961 0.975317 21.9235 0.682911C20.7836 0.247925 19.4865 -0.246822 18.2492 0.158169C16.9595 0.577963 16.1872 1.76275 15.5123 2.81259C15.0773 3.47991 14.6723 4.10998 14.2149 4.43998C13.7499 4.77726 13.0153 4.97991 12.2354 5.18221C11.0358 5.50465 9.67829 5.86472 8.89084 6.9518C8.11098 8.02408 8.17829 9.41877 8.24596 10.6561C8.28359 11.466 8.32846 12.2306 8.14101 12.7934C7.9684 13.3109 7.50373 13.8881 7.00871 14.4957C6.214 15.4706 5.31398 16.5729 5.31398 17.96C5.31398 19.3399 6.21402 20.4494 7.00871 21.4243C7.50377 22.0316 7.96841 22.6015 8.14101 23.1267C8.32087 23.689 8.28359 24.4541 8.24596 25.264C8.18589 26.4937 8.11098 27.8884 8.89084 28.9683C9.0783 29.2234 9.29579 29.4405 9.53572 29.6207L2.56184 39.504C2.34435 39.8116 2.3295 40.2166 2.51696 40.539C2.70442 40.8614 3.07173 41.0413 3.43945 41.0113L10.6008 40.2839L12.318 47.2726C12.4081 47.6399 12.7005 47.9175 13.0678 47.9852C13.1279 47.9927 13.1879 48 13.2477 48C13.5553 48 13.8477 47.8502 14.0351 47.5951L23.0408 34.8324C23.3933 34.7275 23.7233 34.6598 24.0306 34.6598C24.3305 34.6598 24.6678 34.7271 25.0203 34.8324L34.026 47.5951C34.2062 47.8495 34.4986 47.9997 34.8058 47.9997C34.8659 47.9997 34.926 47.9921 34.9857 47.9848C35.353 47.9175 35.653 47.6323 35.7431 47.2723L37.4603 40.2835L44.6216 41.0109C44.9966 41.0486 45.3566 40.8684 45.5441 40.5387C45.7316 40.2162 45.7167 39.8113 45.4993 39.5037L38.5182 29.6128ZM13.6822 44.7678L12.2724 39.0088C12.1598 38.5437 11.7176 38.2289 11.245 38.2814L5.35097 38.8814L11.2975 30.4527C11.6123 30.5501 11.9347 30.6402 12.2423 30.7227C13.0146 30.9326 13.7496 31.1276 14.2218 31.4649C14.6792 31.7949 15.0842 32.4246 15.5192 33.0923C16.1941 34.1421 16.9664 35.3269 18.2561 35.7467C18.5786 35.8517 18.9086 35.8965 19.231 35.8965C19.4862 35.8965 19.7409 35.8665 19.9961 35.8216L13.6822 44.7678ZM21.2409 33.4369C20.3112 33.7894 19.4413 34.1267 18.8413 33.9319C18.1964 33.7221 17.679 32.9122 17.1241 32.0574C16.6142 31.2699 16.0891 30.46 15.3469 29.92C14.5895 29.3725 13.6522 29.1177 12.7374 28.8702C11.7625 28.6078 10.8404 28.3603 10.4503 27.828C10.0678 27.3032 10.1202 26.3583 10.1655 25.3534C10.2103 24.4085 10.2628 23.4263 9.97041 22.5264C9.69285 21.664 9.08557 20.9218 8.50802 20.2092C7.85555 19.4145 7.24829 18.6571 7.24829 17.9597C7.24829 17.2623 7.86313 16.5049 8.50802 15.7102C9.09284 14.9904 9.69281 14.2555 9.97041 13.3931C10.2628 12.493 10.2103 11.5185 10.1655 10.566C10.113 9.5611 10.0681 8.61626 10.4503 8.09147C10.8404 7.55914 11.7625 7.31161 12.7374 7.04923C13.6523 6.8017 14.5895 6.55417 15.3469 5.99939C16.0892 5.45946 16.6143 4.642 17.1241 3.86207C17.6789 3.00729 18.204 2.19739 18.8413 1.98749C18.9614 1.94986 19.0964 1.92742 19.2386 1.92742C19.7934 1.92742 20.506 2.19739 21.2409 2.48219C22.141 2.82707 23.063 3.17955 24.0303 3.17955C24.9976 3.17955 25.9273 2.82707 26.8197 2.48219C27.7494 2.12972 28.6193 1.79243 29.2193 1.98714C29.8642 2.19703 30.3817 3.00693 30.9365 3.86171C31.4464 4.64918 31.9715 5.45905 32.7137 5.99904C33.4711 6.54657 34.4084 6.80134 35.3232 7.04888C36.2981 7.31125 37.2202 7.55877 37.6103 8.09112C37.9929 8.61586 37.9404 9.56075 37.8952 10.5657C37.8503 11.5105 37.7978 12.4928 38.0902 13.3927C38.3678 14.2551 38.975 14.9973 39.5598 15.7099C40.2123 16.5046 40.8196 17.262 40.8196 17.9594C40.8196 18.6568 40.2047 19.4142 39.5598 20.2088C38.975 20.9286 38.375 21.6636 38.0902 22.526C37.7978 23.4261 37.8503 24.4082 37.8952 25.353C37.9476 26.358 37.9925 27.3028 37.6103 27.8276C37.2202 28.36 36.2981 28.6075 35.3232 28.8699C34.4083 29.1174 33.4711 29.3649 32.7137 29.9197C31.9715 30.4596 31.4464 31.2771 30.9365 32.057C30.3817 32.9118 29.8566 33.7217 29.2193 33.9316C28.6193 34.1266 27.7497 33.789 26.8197 33.4365C25.9197 33.0917 24.9976 32.7392 24.0303 32.7392C23.063 32.7395 22.1405 33.092 21.2409 33.4369L21.2409 33.4369ZM36.8157 38.281C36.3359 38.2286 35.9008 38.5434 35.7883 39.0084L34.3784 44.7675L28.0719 35.829C28.6495 35.9339 29.2418 35.9415 29.8115 35.7541C31.1013 35.3343 31.8736 34.1495 32.5485 33.0996C32.9835 32.4323 33.3884 31.8022 33.8459 31.4722C34.3109 31.135 35.0455 30.9323 35.8254 30.73C36.133 30.6475 36.4554 30.5574 36.7702 30.46L42.7167 38.8887L36.8157 38.281Z"></path>
  <path d="M30.847 28.3534C31.1394 28.1359 31.2896 27.7759 31.2295 27.4162L30.1196 20.9522L34.8136 16.3703C35.0759 16.1152 35.166 15.733 35.0535 15.3882C34.9409 15.0433 34.6409 14.7882 34.2812 14.7357L27.7872 13.7908L24.8853 7.90446C24.5628 7.25198 23.4906 7.25198 23.1605 7.90446L20.2585 13.7908L13.7645 14.7357C13.4044 14.7882 13.1048 15.0433 12.9922 15.3882C12.8797 15.733 12.9774 16.1156 13.2322 16.3703L17.9338 20.9522L16.8238 27.4162C16.7638 27.7763 16.9139 28.1436 17.2063 28.3534C17.3714 28.4736 17.5737 28.5333 17.7687 28.5333C17.9185 28.5333 18.0763 28.4957 18.2185 28.4208L24.0304 25.3766L29.8344 28.4287C30.1644 28.601 30.5542 28.5709 30.8469 28.3534L30.847 28.3534ZM24.4803 23.4419C24.3378 23.367 24.1879 23.3294 24.0305 23.3294C23.8731 23.3294 23.7229 23.367 23.5807 23.4419L19.0513 25.8264L19.9137 20.7798C19.9662 20.4722 19.8612 20.1498 19.6361 19.9326L15.9692 16.3557L21.0384 15.6208C21.3533 15.5759 21.6233 15.3808 21.7582 15.096L24.0305 10.5066L26.2952 15.0957C26.4378 15.3805 26.7077 15.5755 27.015 15.6204L32.0842 16.3554L28.4173 19.9323C28.1922 20.1498 28.0872 20.4722 28.1397 20.7795L29.0021 25.826L24.4803 23.4419Z"></path>
</svg>