<svg width="46" height="48" viewBox="0 0 46 48" fill="currentColor"
  xmlns="http://www.w3.org/2000/svg">
  <path fill-rule="evenodd" clip-rule="evenodd"
    d="M17.3802 6.82249L22.3249 0.316069C22.4759 0.116782 22.7113 0 22.9616 0C23.212 0 23.4474 0.116782 23.5984 0.316069L28.5431 6.82249L36.3673 4.46464C36.6073 4.39285 36.8663 4.43678 37.0688 4.58321C37.2705 4.73036 37.3927 4.96393 37.3984 5.21357L37.5738 13.3839L45.2895 16.0754C45.5256 16.1575 45.7095 16.3457 45.7874 16.5832C45.8642 16.8214 45.8256 17.0814 45.6831 17.2872L41.0231 24L45.6831 30.7129C45.8256 30.9186 45.8642 31.1786 45.7874 31.4168C45.7095 31.6543 45.5256 31.8425 45.2895 31.9247L37.5738 34.6162L37.3984 42.7865C37.3927 43.0361 37.2706 43.2697 37.0688 43.4168C36.8663 43.5633 36.6073 43.6072 36.3673 43.5354L28.5431 41.1776L23.5984 47.684C23.4474 47.8833 23.212 48.0001 22.9616 48.0001C22.7113 48.0001 22.4759 47.8833 22.3249 47.684L17.3802 41.1776L9.55595 43.5354C9.31595 43.6072 9.05702 43.5633 8.85452 43.4168C8.65273 43.2697 8.53058 43.0361 8.52487 42.7865L8.34951 34.6162L0.633762 31.9247C0.397693 31.8425 0.213757 31.6543 0.135906 31.4168C0.0591206 31.1786 0.0976917 30.9186 0.24019 30.7129L4.90021 24L0.24019 17.2872C0.097689 17.0814 0.0591151 16.8214 0.135906 16.5832C0.213763 16.3457 0.397693 16.1575 0.633762 16.0754L8.34951 13.3839L8.52487 5.21357C8.53058 4.96392 8.65272 4.73035 8.85452 4.58321C9.05701 4.43678 9.31595 4.39286 9.55595 4.46464L17.3802 6.82249ZM22.9617 2.12251L18.3185 8.23287C18.116 8.4993 17.7706 8.61108 17.4506 8.51536L10.1024 6.30069L9.93775 13.9736C9.93061 14.3071 9.71703 14.6014 9.40097 14.7121L2.15452 17.2393L6.5313 23.5439C6.72165 23.8186 6.72165 24.1814 6.5313 24.4561L2.15452 30.7607L9.40097 33.2879C9.71703 33.3986 9.93061 33.6929 9.93775 34.0265L10.1024 41.6993L17.4506 39.4847C17.7706 39.389 18.116 39.5007 18.3185 39.7672L22.9617 45.8775L27.6049 39.7672C27.8074 39.5007 28.1527 39.389 28.4727 39.4847L35.8209 41.6993L35.9856 34.0265C35.9927 33.6929 36.2063 33.3986 36.5224 33.2879L43.7688 30.7607L39.392 24.4561C39.2017 24.1814 39.2017 23.8186 39.392 23.5439L43.7688 17.2393L36.5224 14.7121C36.2063 14.6014 35.9927 14.3071 35.9856 13.9736L35.8209 6.30069L28.4727 8.51536C28.1527 8.61108 27.8074 8.49929 27.6049 8.23287L22.9617 2.12251ZM22.9617 9.6C15.0145 9.6 8.56166 16.0528 8.56166 24C8.56166 31.9472 15.0145 38.4 22.9617 38.4C30.9088 38.4 37.3617 31.9472 37.3617 24C37.3617 16.0528 30.9088 9.6 22.9617 9.6ZM22.9617 11.2C30.0263 11.2 35.7617 16.9353 35.7617 24C35.7617 31.0647 30.0263 36.8 22.9617 36.8C15.897 36.8 10.1617 31.0647 10.1617 24C10.1617 16.9353 15.897 11.2 22.9617 11.2ZM22.5024 27.2101L29.1424 19.0939C29.4224 18.7525 29.9263 18.7018 30.268 18.9811C30.6095 19.2611 30.6602 19.765 30.3809 20.1068L23.1809 28.9068C23.0377 29.0818 22.8273 29.1882 22.6016 29.1996C22.3759 29.2107 22.1559 29.126 21.9959 28.966L17.1959 24.166C16.8841 23.8539 16.8841 23.3468 17.1959 23.0346C17.5081 22.7228 18.0152 22.7228 18.3273 23.0346L22.5024 27.2101Z"></path>
</svg>