<svg width="48" height="48" viewBox="0 0 48 48" fill="currentColor" xmlns="http://www.w3.org/2000/svg">
  <path d="M23.8377 11.2309C20.8574 11.2309 18.4332 13.6558 18.4332 16.6362C18.4332 19.6165 20.8573 22.0414 23.8377 22.0414C26.818 22.0414 29.243 19.6165 29.243 16.6362C29.243 13.6558 26.818 11.2309 23.8377 11.2309ZM23.8377 20.2216C21.8617 20.2216 20.2531 18.6131 20.2531 16.6362C20.2531 14.6589 21.8616 13.0507 23.8377 13.0507C25.815 13.0507 27.4231 14.6592 27.4231 16.6362C27.4231 18.613 25.815 20.2216 23.8377 20.2216Z"></path>
  <path d="M47.9528 40.906L41.5568 22.0742C41.4663 21.8084 41.2581 21.5989 40.9934 21.5072L34.4849 19.2468C34.6923 18.4512 34.8141 17.6416 34.8141 16.8227C34.8141 10.7707 29.8897 5.84613 23.8375 5.84613C17.7855 5.84613 12.8619 10.7705 12.8619 16.8227C12.8619 17.6988 13.0073 18.5717 13.2579 19.431L7.01857 21.5028C6.83477 21.5641 6.6746 21.6834 6.56289 21.8416C5.75244 22.9888 1.36736 36.7381 0.0424366 40.9245C-0.0640798 41.2613 0.0336274 41.6293 0.2939 41.8691C0.464484 42.0265 0.685912 42.109 0.909749 42.109C1.02627 42.109 1.14359 42.087 1.25531 42.0405L12.3426 37.4849L23.4299 42.0405C23.6109 42.1154 23.8079 42.1214 23.9937 42.075C24.0686 42.0946 24.1451 42.109 24.2236 42.109C24.3389 42.109 24.4562 42.087 24.5691 42.0405L35.6564 37.4849L46.7437 42.0405C47.0733 42.1755 47.4529 42.1062 47.7123 41.8619C47.973 41.6173 48.0663 41.2441 47.9518 40.9065L47.9528 40.906ZM11.549 35.8431L2.36776 39.6159C4.37784 33.3148 7.17765 24.785 7.93488 23.1161L13.8992 21.1357C14.0442 21.4532 14.1999 21.7675 14.3681 22.0783L11.549 35.8431ZM22.867 39.8405L13.3858 35.9452L15.7731 24.2879C18.2734 27.7259 21.6545 30.4172 22.867 31.3278V39.8405ZM23.9641 29.693C23.9016 29.6793 23.8432 29.6553 23.7767 29.6553C23.7503 29.6553 23.7279 29.6681 23.7018 29.6705C21.5319 27.994 14.6819 22.2687 14.6819 16.8222C14.6819 11.7732 18.789 7.66529 23.838 7.66529C28.8869 7.66529 32.9948 11.7732 32.9948 16.8222C32.9948 22.4717 26.1083 28.0827 23.964 29.6921L23.9641 29.693ZM24.6869 40.0248V31.4261C25.8084 30.6188 29.4062 27.8824 31.9962 24.2734L34.6034 35.9501L24.6869 40.0248ZM36.4425 35.8392L33.3677 22.0682C33.5583 21.7066 33.7377 21.3402 33.8966 20.9679L39.9766 23.0797L45.5862 39.5959L36.4425 35.8392Z"></path>
</svg>